<?xml version="1.0" encoding="UTF-8" standalone="no"?> <svg id="Layer_1" data-name="Layer 1" xmlns="http://www.w3.org/2000/svg" viewBox="0 0 120 120"><defs><style>.cls-1{fill:#d8860f;}</style></defs><title>Wind icon</title><rect class="cls-1" x="81.18" y="60.66" width="14.7" height="2" rx="1"/><path class="cls-1" d="M76.44,60.66h-50a10,10,0,0,1-10-10,7.8,7.8,0,0,1,7.79-7.79,6,6,0,0,1,6,6,4.63,4.63,0,0,1-4.63,4.62v2a6.63,6.63,0,0,0,6.63-6.62,8,8,0,0,0-8-8,9.8,9.8,0,0,0-9.79,9.79,12,12,0,0,0,12,12h50a1,1,0,0,0,0-2Z"/><rect class="cls-1" x="92.37" y="66.79" width="9.31" height="2" rx="1"/><path class="cls-1" d="M85.75,66.79H33.12a10.31,10.31,0,0,0-10.3,10.3,8.45,8.45,0,0,0,8.44,8.43,7,7,0,0,0,7-7,5.77,5.77,0,0,0-5.76-5.76v2a3.76,3.76,0,0,1,3.76,3.76,5,5,0,0,1-4.95,5,6.44,6.44,0,0,1-6.44-6.43,8.31,8.31,0,0,1,8.3-8.3H85.75a1,1,0,0,0,0-2Z"/><path class="cls-1" d="M100.68,53.88H53A16.09,16.09,0,0,1,36.26,38.52,12.63,12.63,0,0,1,48.35,25.38a9.91,9.91,0,0,1,10.31,9.47,7.74,7.74,0,0,1-7.4,8A6,6,0,0,1,45,37.17a4.6,4.6,0,0,1,4.39-4.77,3.48,3.48,0,0,1,2.49.91A3.41,3.41,0,0,1,53,35.72l2-.09a5.48,5.48,0,0,0-5.69-5.23A6.6,6.6,0,0,0,43,37.25a8,8,0,0,0,8.31,7.64,9.72,9.72,0,0,0,9.3-10.12A11.89,11.89,0,0,0,48.26,23.38a14.63,14.63,0,0,0-14,15.23,18,18,0,0,0,18,17.28l.76,0h47.69a1,1,0,0,0,0-2Z"/><path class="cls-1" d="M100.68,72.41H57.41A13.32,13.32,0,0,0,44.3,86,10.86,10.86,0,0,0,55.15,96.63h.18a8.88,8.88,0,0,0,8.74-9,7.32,7.32,0,0,0-7.42-7.2,6.07,6.07,0,0,0-5.95,6.15,5.05,5.05,0,0,0,5.12,5l0-2h0a3,3,0,0,1-3-3,4.05,4.05,0,0,1,4-4.11,5.31,5.31,0,0,1,5.39,5.23,6.88,6.88,0,0,1-6.77,7,8.84,8.84,0,0,1-9-8.71A11.34,11.34,0,0,1,57.43,74.41h43.25a1,1,0,0,0,0-2Z"/><circle class="cls-1" cx="54.04" cy="35.68" r="1.01"/><circle class="cls-1" cx="25.74" cy="54.54" r="1"/><circle class="cls-1" cx="32.48" cy="73.81" r="1"/><circle class="cls-1" cx="55.8" cy="90.51" r="1"/></svg>